<?xml version="1.0" encoding="UTF-8"?>
<svg xmlns="http://www.w3.org/2000/svg" xmlns:xlink="http://www.w3.org/1999/xlink" viewBox="0 0 111.13 111.13">
  <defs>
    <style>
      .cls-1 {
        fill: #c5c3e6;
        mix-blend-mode: multiply;
      }

      .cls-2 {
        isolation: isolate;
      }

      .cls-3 {
        fill: #235ecc;
      }

      .cls-3, .cls-4 {
        mix-blend-mode: screen;
      }

      .cls-5 {
        fill: #474ca8;
      }

      .cls-6 {
        fill: #3a3687;
      }

      .cls-7 {
        clip-path: url(#clippath);
      }

      .cls-8 {
        fill: #42f9ff;
      }

      .cls-4 {
        fill: #272da1;
      }

      .cls-9 {
        fill: #70a2ff;
      }

      .cls-10 {
        fill: #e4edff;
        opacity: .1;
      }
    </style>
    <clipPath id="clippath">
      <circle class="cls-10" cx="55.56" cy="55.56" r="55.56"/>
    </clipPath>
  </defs>
  <g class="cls-2">
    <g id="Layer_2" data-name="Layer 2">
      <g id="__x2021__xF8FF__x5F_1" data-name="˜_x2021__xF8FF__x5F_1">
        <g>
          <circle class="cls-10" cx="55.56" cy="55.56" r="55.56"/>
          <g class="cls-7">
            <g>
              <g>
                <path class="cls-5" d="m60.99,98.88c0-7.19,5.83-13.02,13.02-13.02s13.02,5.83,13.02,13.02-5.83,13.02-13.02,13.02-13.02-5.83-13.02-13.02Z"/>
                <circle class="cls-5" cx="38.48" cy="98.88" r="13.02"/>
                <path class="cls-1" d="m25.61,96.96c.49,3.28,2.19,6.15,4.64,8.16,1.33,1.09,3.34.68,4.26-.78.96-1.52,2.15-3.46,3.31-5.45,2.54-4.36,6.04-7.64,6.04-7.64l-8.18,16.5c.9.2,1.83.31,2.79.31,6.53,0,11.93-4.82,12.86-11.09.09.63.16,1.27.16,1.93,0,7.19-5.83,13.02-13.02,13.02s-13.02-5.83-13.02-13.02c0-.66.06-1.3.16-1.93Z"/>
                <path class="cls-1" d="m86.84,96.96c-.49,3.28-2.19,6.15-4.63,8.16-1.33,1.09-3.33.68-4.25-.78-.95-1.52-2.14-3.46-3.3-5.45-2.54-4.36-6.03-7.64-6.03-7.64l8.16,16.5c-.9.2-1.83.31-2.79.31-6.52,0-11.89-4.82-12.82-11.09-.09.63-.16,1.27-.16,1.93,0,7.19,5.81,13.02,12.98,13.02s12.98-5.83,12.98-13.02c0-.66-.06-1.3-.16-1.93Z"/>
                <path class="cls-9" d="m26.98,144.6c0,16.26,13.18,29.43,29.43,29.43s29.43-13.18,29.43-29.43-13.18-62.29-29.43-62.29-29.43,46.04-29.43,62.29Z"/>
                <path class="cls-5" d="m56.41,91c-3.81,0-7.44-.75-10.78-2.07,3.34-4.08,6.98-6.63,10.78-6.63s7.44,2.55,10.78,6.63c-3.34,1.32-6.97,2.07-10.78,2.07Z"/>
                <path class="cls-3" d="m56.41,98.88c-4.21,0-8.29-.33-12.23-.91-.83-.12-1.28-1.07-.85-1.8.84-1.4,1.72-2.72,2.62-3.9.29-.38.79-.53,1.25-.41,2.94.78,6.02,1.22,9.21,1.22s6.27-.43,9.21-1.22c.47-.12.96.02,1.25.41.9,1.18,1.77,2.5,2.62,3.9.43.72-.01,1.67-.85,1.8-3.93.58-8.02.91-12.23.91Z"/>
                <path class="cls-4" d="m28.44,92.06c2.64-2.85,6.41-4.64,10.6-4.64,1.13,0,2.22.13,3.27.38.49.12.73.68.47,1.11l-1.8,3.02c-.14.24-.41.38-.69.36-.41-.03-.83-.05-1.26-.05-3.38,0-6.56.6-9.35,1.67-1.13.43-2.08-.97-1.25-1.86Z"/>
                <path class="cls-4" d="m83.82,92.06c-2.64-2.85-6.41-4.64-10.6-4.64-1.13,0-2.22.13-3.27.38-.49.12-.73.68-.47,1.11l1.8,3.02c.14.24.41.38.69.36.42-.03.83-.05,1.26-.05,3.38,0,6.56.6,9.35,1.67,1.13.43,2.08-.97,1.25-1.86Z"/>
                <path class="cls-5" d="m56.16,158.52c-2.91,0-5.29-2.38-5.29-5.29v-45.97c0-2.91,2.38-5.29,5.29-5.29s5.29,2.38,5.29,5.29v45.97c0,2.91-2.38,5.29-5.29,5.29Z"/>
                <path class="cls-8" d="m56.16,155.47c-1.3,0-2.36-1.06-2.36-2.36v-45.18c0-1.3,1.06-2.36,2.36-2.36s2.36,1.06,2.36,2.36v45.18c0,1.3-1.06,2.36-2.36,2.36Z"/>
              </g>
              <rect class="cls-6" x="92.51" y="34.63" width="1.79" height="18.18"/>
              <g>
                <path class="cls-9" d="m89.57,31.3c0-2.12,1.72-3.84,3.83-3.84s3.83,1.72,3.83,3.84-1.72,3.84-3.83,3.84-3.83-1.72-3.83-3.84Z"/>
                <path class="cls-1" d="m93.41,34c-1.92,0-3.51-1.42-3.79-3.27-.03.19-.05.37-.05.57,0,2.12,1.72,3.84,3.83,3.84s3.83-1.72,3.83-3.84c0-.19-.02-.38-.05-.57-.27,1.85-1.86,3.27-3.79,3.27Z"/>
                <path class="cls-4" d="m93.41,29.35c.81,0,1.57.14,2.24.4.27.1.5-.24.3-.45-.63-.68-1.53-1.11-2.53-1.11s-1.9.43-2.53,1.11c-.2.21.03.55.3.45.67-.25,1.43-.4,2.24-.4Z"/>
              </g>
              <rect class="cls-6" x="18.24" y="34.63" width="1.79" height="18.18"/>
              <g>
                <path class="cls-9" d="m15.3,31.3c0-2.12,1.72-3.84,3.83-3.84s3.83,1.72,3.83,3.84-1.72,3.84-3.83,3.84-3.83-1.72-3.83-3.84Z"/>
                <path class="cls-1" d="m19.14,34c-1.92,0-3.51-1.42-3.79-3.27-.03.19-.05.37-.05.57,0,2.12,1.72,3.84,3.83,3.84s3.83-1.72,3.83-3.84c0-.19-.02-.38-.05-.57-.27,1.85-1.86,3.27-3.79,3.27Z"/>
                <path class="cls-4" d="m19.14,29.35c.81,0,1.57.14,2.24.4.27.1.5-.24.3-.45-.63-.68-1.53-1.11-2.53-1.11s-1.9.43-2.53,1.11c-.2.21.03.55.3.45.67-.25,1.43-.4,2.24-.4Z"/>
              </g>
              <rect class="cls-5" x="48.11" y="79.51" width="16.24" height="6.87"/>
              <rect class="cls-9" x="22.73" y="32.9" width="66.77" height="46.74" rx="15.61" ry="15.61"/>
              <path class="cls-1" d="m79,75.93h-45.78c-2.19,0-4.27-.43-6.2-1.19,2.85,3.01,6.87,4.91,11.32,4.91h35.55c4.45,0,8.47-1.9,11.32-4.91-1.93.76-4.01,1.19-6.2,1.19Z"/>
              <rect class="cls-5" x="37.89" y="28.81" width="36.27" height="54.92" rx="10.91" ry="10.91" transform="translate(112.29 .25) rotate(90)"/>
              <path class="cls-4" d="m39.14,44.45h33.95c3.38,0,6.4,1.45,8.43,3.73-.96-4.59-5.22-8.05-10.34-8.05h-30.13c-5.11,0-9.37,3.46-10.34,8.05,2.02-2.28,5.04-3.73,8.43-3.73Z"/>
              <path class="cls-1" d="m73.4,68.86h-34.58c-3.44,0-6.52-1.45-8.58-3.73.98,4.59,5.32,8.05,10.53,8.05h30.69c5.21,0,9.54-3.46,10.53-8.05-2.06,2.28-5.14,3.73-8.58,3.73Z"/>
              <g>
                <path class="cls-8" d="m56.02,65.14c-5.47,0-10.94-1.14-16.72-3.42-.92-.36-1.38-1.41-1.01-2.33.36-.92,1.41-1.38,2.33-1.01,10.8,4.26,20.01,4.26,30.8,0,.92-.36,1.97.09,2.33,1.01.36.92-.09,1.96-1.01,2.33-5.78,2.28-11.25,3.42-16.72,3.42Z"/>
                <g>
                  <path class="cls-8" d="m44.39,50.58c0-2.12,1.21-3.84,2.7-3.84s2.7,1.72,2.7,3.84-1.21,3.84-2.7,3.84-2.7-1.72-2.7-3.84Z"/>
                  <path class="cls-8" d="m62.25,50.58c0-2.12,1.21-3.84,2.7-3.84s2.7,1.72,2.7,3.84-1.21,3.84-2.7,3.84-2.7-1.72-2.7-3.84Z"/>
                </g>
              </g>
              <rect class="cls-1" x="48.11" y="79.51" width="16.24" height="3.43"/>
              <path class="cls-5" d="m89.92,65.13h-.49v-16.62h.49c4.59,0,8.31,3.72,8.31,8.31s-3.72,8.31-8.31,8.31Z"/>
              <path class="cls-4" d="m90.9,53.18v-2.89c0-.43.41-.78.83-.65,2.31.69,4.16,2.45,4.99,4.7.2.54-.36,1.08-.89.85-1.29-.56-2.77-1.02-4.4-1.36-.31-.06-.53-.33-.53-.65Z"/>
              <path class="cls-1" d="m92.9,62.33c-.92.24-1.83-.37-1.96-1.31l-1.51-10.82v14.93h.49c3.3,0,6.13-1.94,7.47-4.73-.9.87-2.98,1.54-4.49,1.93Z"/>
              <path class="cls-5" d="m22.24,65.13h.49v-16.62h-.49c-4.59,0-8.31,3.72-8.31,8.31s3.72,8.31,8.31,8.31Z"/>
              <path class="cls-4" d="m21.26,53.18v-2.89c0-.43-.41-.78-.83-.65-2.31.69-4.16,2.45-4.99,4.7-.2.54.36,1.08.89.85,1.29-.56,2.77-1.02,4.4-1.36.31-.06.54-.33.54-.65Z"/>
              <path class="cls-1" d="m19.26,62.33c.92.24,1.83-.37,1.96-1.31l1.51-10.82v14.93h-.49c-3.3,0-6.13-1.94-7.47-4.73.9.87,2.98,1.54,4.49,1.93Z"/>
            </g>
          </g>
        </g>
      </g>
    </g>
  </g>
</svg>