<?xml version="1.0" encoding="UTF-8"?>
<svg xmlns="http://www.w3.org/2000/svg" xmlns:xlink="http://www.w3.org/1999/xlink" viewBox="0 0 111.13 111.13">
  <defs>
    <style>
      .cls-1 {
        fill: #c5c3e6;
        mix-blend-mode: multiply;
      }

      .cls-2 {
        isolation: isolate;
      }

      .cls-3 {
        fill: #235ecc;
      }

      .cls-3, .cls-4 {
        mix-blend-mode: screen;
      }

      .cls-5 {
        fill: #474ca8;
      }

      .cls-6 {
        fill: #3a3687;
      }

      .cls-7 {
        clip-path: url(#clippath);
      }

      .cls-8 {
        fill: #42f9ff;
      }

      .cls-4 {
        fill: #272da1;
      }

      .cls-9 {
        fill: #70a2ff;
      }

      .cls-10 {
        fill: #e4edff;
        opacity: .1;
      }
    </style>
    <clipPath id="clippath">
      <circle class="cls-10" cx="55.56" cy="55.56" r="55.56" transform="translate(-9.66 99.39) rotate(-78.9)"/>
    </clipPath>
  </defs>
  <g class="cls-2">
    <g id="Layer_2" data-name="Layer 2">
      <g id="__x2021__xF8FF__x5F_1" data-name="˜_x2021__xF8FF__x5F_1">
        <g>
          <circle class="cls-10" cx="55.56" cy="55.56" r="55.56" transform="translate(-9.66 99.39) rotate(-78.9)"/>
          <g class="cls-7">
            <g>
              <rect class="cls-6" x="54.85" y="12.97" width="1.8" height="18.18"/>
              <g>
                <circle class="cls-9" cx="55.75" cy="9.63" r="3.84"/>
                <path class="cls-1" d="m55.75,12.33c-1.92,0-3.51-1.42-3.79-3.27-.03.19-.05.37-.05.57,0,2.12,1.72,3.84,3.84,3.84s3.84-1.72,3.84-3.84c0-.19-.02-.38-.05-.57-.27,1.85-1.86,3.27-3.79,3.27Z"/>
                <path class="cls-3" d="m55.75,7.69c.81,0,1.57.14,2.24.4.27.1.5-.24.3-.45-.63-.68-1.53-1.11-2.53-1.11s-1.9.43-2.53,1.11c-.2.21.03.55.3.45.67-.25,1.43-.4,2.24-.4Z"/>
              </g>
              <path class="cls-5" d="m17.49,38.48v23.55c0,2.36,1.93,4.29,4.29,4.29s4.29-1.93,4.29-4.29v-23.55c0-2.36-1.93-4.29-4.29-4.29s-4.29,1.93-4.29,4.29Z"/>
              <path class="cls-1" d="m18.98,61.41c.68.59,1.74.09,1.74-.81v-10.73c0-4.55,1.98-8.65,5.11-11.51.11.05.13.06.24.11v23.39c0,2.18-1.55,4.12-3.71,4.41-2.61.35-4.86-1.7-4.86-4.25v-3.84c0,1.29.58,2.44,1.49,3.22Z"/>
              <path class="cls-4" d="m21.23,39.24h1.1c.91,0,1.65-.74,1.65-1.65s-.74-1.65-1.65-1.65h-1.1c-.91,0-1.65.74-1.65,1.65s.74,1.65,1.65,1.65Z"/>
              <path class="cls-5" d="m93.88,38.48v23.55c0,2.36-1.93,4.29-4.29,4.29s-4.29-1.93-4.29-4.29v-23.55c0-2.36,1.93-4.29,4.29-4.29s4.29,1.93,4.29,4.29Z"/>
              <rect class="cls-5" x="47.52" y="79.18" width="16.46" height="10.68"/>
              <path class="cls-1" d="m92.4,61.41c-.68.59-1.74.09-1.74-.81v-10.73c0-4.55-1.98-8.65-5.11-11.51-.11.05-.13.06-.24.11v23.39c0,2.18,1.55,4.12,3.71,4.41,2.61.35,4.86-1.7,4.86-4.25v-3.84c0,1.29-.58,2.44-1.49,3.22Z"/>
              <rect class="cls-9" x="22.25" y="32.57" width="66.77" height="46.74" rx="15.61" ry="15.61"/>
              <path class="cls-1" d="m78.52,75.59h-45.78c-2.19,0-4.28-.43-6.2-1.19,2.85,3.01,6.87,4.91,11.32,4.91h35.55c4.45,0,8.47-1.9,11.32-4.91-1.93.76-4.01,1.19-6.2,1.19Z"/>
              <rect class="cls-5" x="37.5" y="28.48" width="36.27" height="54.92" rx="10.91" ry="10.91" transform="translate(111.57 .31) rotate(90)"/>
              <path class="cls-4" d="m38.65,44.12h33.95c3.38,0,6.4,1.45,8.43,3.73-.97-4.59-5.22-8.05-10.34-8.05h-30.13c-5.11,0-9.37,3.46-10.34,8.05,2.02-2.28,5.04-3.73,8.43-3.73Z"/>
              <path class="cls-1" d="m72.92,68.53h-34.58c-3.44,0-6.52-1.45-8.58-3.73.98,4.59,5.32,8.05,10.53,8.05h30.69c5.21,0,9.54-3.46,10.53-8.05-2.06,2.28-5.14,3.73-8.58,3.73Z"/>
              <g>
                <path class="cls-8" d="m38.94,50.25c0-1.64,2.12-2.97,4.74-2.97s4.74,1.33,4.74,2.97-2.12,2.97-4.74,2.97-4.74-1.33-4.74-2.97Z"/>
                <path class="cls-8" d="m62.66,50.25c0-1.64,2.12-2.97,4.74-2.97s4.74,1.33,4.74,2.97-2.12,2.97-4.74,2.97-4.74-1.33-4.74-2.97Z"/>
              </g>
              <rect class="cls-1" x="47.52" y="79.18" width="16.46" height="3.43"/>
              <rect class="cls-5" x="39.57" y="28.87" width="32.12" height="7.41" rx="2.88" ry="2.88"/>
              <rect class="cls-5" x="113.07" y="88.26" width="8.69" height="46.1" transform="translate(-16.73 201.77) rotate(-77.47)"/>
              <path class="cls-4" d="m68.47,32.57h-25.63c-.65,0-1.17-.53-1.17-1.17s.53-1.17,1.17-1.17h25.63c.65,0,1.17.53,1.17,1.17s-.53,1.17-1.17,1.17Z"/>
              <path class="cls-4" d="m90.15,39.24h-1.1c-.91,0-1.65-.74-1.65-1.65s.74-1.65,1.65-1.65h1.1c.91,0,1.65.74,1.65,1.65s-.74,1.65-1.65,1.65Z"/>
              <path class="cls-8" d="m65.63,63.64l-17.57,3.06c-1.3.23-2.55-.65-2.78-1.95-.23-1.3.65-2.55,1.95-2.78l17.57-3.06c1.3-.23,2.55.65,2.78,1.95.23,1.3-.65,2.55-1.95,2.78Z"/>
              <rect class="cls-9" x="17.49" y="89.85" width="76.39" height="87.96" rx="21.54" ry="21.54"/>
              <path class="cls-5" d="m72.34,89.85h-4.72v19.25c0,11.85,9.7,21.54,21.54,21.54h4.72v-19.25c0-11.85-9.7-21.54-21.54-21.54Z"/>
              <path class="cls-5" d="m39.04,89.85h4.72v19.25c0,11.85-9.7,21.54-21.54,21.54h-4.72v-19.25c0-11.85,9.7-21.54,21.54-21.54Z"/>
              <path class="cls-5" d="m55.16,101.44h1.17c5.29,0,9.59,4.3,9.59,9.59v56.12c0,2.35-1.91,4.26-4.26,4.26h-11.83c-2.35,0-4.26-1.91-4.26-4.26v-56.12c0-5.29,4.3-9.59,9.59-9.59Z"/>
              <path class="cls-8" d="m55.75,144.21c-3.6,0-6.55-2.95-6.55-6.55v-25.4c0-3.6,2.95-6.55,6.55-6.55s6.55,2.95,6.55,6.55v25.4c0,3.6-2.95,6.55-6.55,6.55Z"/>
              <g>
                <circle class="cls-9" cx="91.13" cy="103.92" r="13.79" transform="translate(-26.19 177) rotate(-80.67)"/>
                <path class="cls-1" d="m91.13,113.63c-6.92,0-12.63-5.1-13.62-11.75-.1.67-.17,1.34-.17,2.04,0,7.61,6.17,13.79,13.79,13.79s13.79-6.17,13.79-13.79c0-.69-.07-1.37-.17-2.04-.99,6.64-6.7,11.75-13.62,11.75Z"/>
                <path class="cls-3" d="m91.13,96.94c2.91,0,5.64.52,8.04,1.43.98.37,1.78-.85,1.07-1.61-2.27-2.45-5.51-3.98-9.11-3.98s-6.84,1.53-9.11,3.98c-.71.77.09,1.99,1.07,1.61,2.4-.91,5.14-1.43,8.04-1.43Z"/>
              </g>
              <g>
                <rect class="cls-5" x="-9.89" y="88.26" width="8.69" height="46.1" transform="translate(-115.42 130.05) rotate(-102.53)"/>
                <g>
                  <circle class="cls-9" cx="20.73" cy="103.92" r="13.79" transform="translate(-16.38 4.66) rotate(-9.22)"/>
                  <path class="cls-1" d="m20.73,113.63c6.92,0,12.63-5.1,13.62-11.75.1.67.17,1.34.17,2.04,0,7.61-6.17,13.79-13.79,13.79s-13.79-6.17-13.79-13.79c0-.69.07-1.37.17-2.04.99,6.64,6.7,11.75,13.62,11.75Z"/>
                  <path class="cls-3" d="m20.73,96.94c-2.91,0-5.64.52-8.04,1.43-.98.37-1.78-.85-1.07-1.61,2.27-2.45,5.51-3.98,9.11-3.98s6.84,1.53,9.11,3.98c.71.77-.09,1.99-1.07,1.61-2.4-.91-5.14-1.43-8.04-1.43Z"/>
                </g>
              </g>
              <path class="cls-3" d="m75.16,104.02c0-2.87.75-5.58,2.06-7.94.31-.56.04-1.26-.57-1.45-.48-.15-.98-.23-1.51-.23h-37.61c-1.04,0-2,.31-2.82.83-.44.28-.59.84-.36,1.31,1.15,2.25,1.82,4.79,1.82,7.48,0,.58.38,1.03.9,1.08.15.02.31.03.46.03h36.55c.42-.43.65-.67,1.07-1.1h0Z"/>
            </g>
          </g>
        </g>
      </g>
    </g>
  </g>
</svg>